<?xml version="1.0" encoding="utf-8"?>
<!-- Generator: Adobe Illustrator 28.1.0, SVG Export Plug-In . SVG Version: 6.00 Build 0)  -->
<svg version="1.1" id="Capa_1" xmlns="http://www.w3.org/2000/svg" xmlns:xlink="http://www.w3.org/1999/xlink" x="0px" y="0px"
	 viewBox="0 0 305.2 53.8" style="enable-background:new 0 0 305.2 53.8;" xml:space="preserve">
<style type="text/css">
	.st0{fill:#EF007A;}
	.st1{fill:#FFFFFF;}
</style>
<g>
	<g>
		<path class="st0" d="M279.5,53.3H25.6c-14,0-25.4-11.4-25.4-25.4l0-2c0-14,11.4-25.4,25.4-25.4l253.9,0c14,0,25.4,11.4,25.4,25.4
			v2C305,41.9,293.6,53.3,279.5,53.3z"/>
	</g>
	<g>
		<g>
			<g>
				<g>
					<polygon class="st1" points="18.2,16.5 25.8,16.5 30.6,24.4 35.5,16.5 43.2,16.5 43.2,39 35.7,39 35.7,27.5 30.6,35.9 
						30.5,35.9 25.1,27.5 25.1,39 18.2,39 					"/>
					<polygon class="st1" points="47,16.5 65.7,16.5 65.7,22.1 53.9,22.1 53.9,24.6 65.1,24.6 65.1,30.2 53.9,30.2 53.9,32.7 
						66.4,32.7 66.4,39 47,39 					"/>
					<polygon class="st1" points="74.5,22.7 68.3,22.7 68.3,16.5 88.9,16.5 88.9,22.7 82,22.7 82,39 74.5,39 					"/>
					<path class="st1" d="M91.4,16.5h10.9c4,0,6.6,0.8,8.2,2.4c1.4,1.4,2.2,2.9,2.2,5.2v0.1c0,3.3-1.8,5.7-4.5,7l5.2,7.8h-8.6
						l-4.3-6.9h-1.5V39h-7.5V16.5z M102.1,27.1c1.8,0,3.1-1,3.1-2.4v-0.1c0-1.5-1.3-1.9-3-1.9h-3.2v4.4H102.1z"/>
					<path class="st1" d="M114.6,27.5L114.6,27.5c0-6.6,5.3-11.8,12.2-11.8c7,0,12.2,5.2,12.2,11.7v0.1c0,6.5-5.3,11.8-12.2,11.8
						C119.8,39.2,114.6,34,114.6,27.5 M131.5,27.5L131.5,27.5c0-2.7-1.8-5.2-4.7-5.2c-2.9,0-4.7,2.4-4.7,5v0.1
						c0,2.7,1.8,5.1,4.7,5.1C129.7,32.5,131.5,30.1,131.5,27.5"/>
					<path class="st1" d="M141.9,16h12.4c3.1,0,5,0.6,6.3,1.9c0.8,0.8,1.3,1.8,1.3,3.4v0.1c0,2.7-1.7,4.3-4.1,5.2
						c2.9,0.8,4.7,2.4,4.7,5.5v0.1c0,3.6-2.7,6.5-8.4,6.5h-12.3V16z M152.3,24.8c1.6,0,2.1-0.7,2.1-1.7V23c0-1-0.5-1.4-2.1-1.4h-3.5
						v3.1H152.3z M152.8,32.9c1.6,0,2.3-1,2.3-1.9v-0.1c0-1-0.6-1.8-2.2-1.8h-4v3.8H152.8z"/>
					<path class="st1" d="M165.7,27.1L165.7,27.1c0-6.6,5.3-11.8,12.2-11.8c7,0,12.2,5.2,12.2,11.7v0.1c0,6.5-5.3,11.8-12.3,11.8
						C170.9,38.8,165.7,33.7,165.7,27.1 M182.6,27.1L182.6,27.1c0-2.7-1.8-5.2-4.7-5.2c-2.9,0-4.7,2.4-4.7,5v0.1
						c0,2.7,1.8,5.1,4.7,5.1C180.8,32.2,182.6,29.8,182.6,27.1"/>
					<polygon class="st1" points="193.9,16 201.4,16 201.4,31.7 212,31.7 212,38.6 193.9,38.6 					"/>
					<path class="st1" d="M213.2,35l4-4.8c2.4,1.9,5.2,2.6,7.9,2.6c1.3,0,1.9-0.4,1.9-1v-0.1c0-0.6-0.7-1-3.1-1.5
						c-5.1-1-9.4-2.5-9.4-7.2V23c0-4.3,3.3-7.6,9.5-7.6c4.3,0,7.6,1,10.2,3.1l-3.7,5.1c-2.1-1.6-4.7-2.2-6.8-2.2
						c-1.1,0-1.7,0.4-1.7,0.9v0.1c0,0.6,0.6,1,3,1.4c5.8,1.1,9.6,2.7,9.6,7.3v0.1c0,4.7-3.8,7.6-9.9,7.6
						C220.1,38.8,216.1,37.5,213.2,35"/>
					<path class="st1" d="M245.4,15.4h7.5l9.5,23.2h-8.2l-1.2-3.1h-7.9l-1.2,3.1h-8.1L245.4,15.4z M251.1,29.8l-2.1-5.5l-2.1,5.5
						H251.1z"/>
					<path class="st1" d="M262.7,35l4-4.8c2.4,1.9,5.2,2.6,7.9,2.6c1.4,0,1.9-0.4,1.9-1v-0.1c0-0.6-0.7-1-3.1-1.5
						c-5.1-1-9.4-2.5-9.4-7.2V23c0-4.3,3.3-7.6,9.5-7.6c4.4,0,7.6,1,10.2,3.1l-3.7,5.1c-2.1-1.6-4.7-2.2-6.8-2.2
						c-1.1,0-1.7,0.4-1.7,0.9v0.1c0,0.6,0.6,1,2.9,1.4c5.8,1.1,9.6,2.7,9.6,7.3v0.1c0,4.7-3.8,7.6-9.9,7.6
						C269.6,38.8,265.6,37.5,262.7,35"/>
				</g>
			</g>
		</g>
	</g>
</g>
</svg>
